<svg width="90" height="90" viewBox="0 0 90 90" fill="none" xmlns="http://www.w3.org/2000/svg">
<path d="M45 23.9062C36.4359 36.5625 30.9375 44.4656 30.9375 52.1578C30.9375 55.8874 32.4191 59.4643 35.0563 62.1015C37.6935 64.7387 41.2704 66.2203 45 66.2203C48.7296 66.2203 52.3065 64.7387 54.9437 62.1015C57.5809 59.4643 59.0625 55.8874 59.0625 52.1578C59.0625 44.4656 53.5641 36.5625 45 23.9062Z" fill="url(#paint0_linear_51_164)" stroke="#2885C7" stroke-width="0.5" stroke-miterlimit="10"/>
<path d="M36.9001 42.4547C37.7323 41.7603 38.7999 41.4128 39.8814 41.4844C40.9629 41.4128 42.0304 41.7603 42.8626 42.4547C43.217 42.8057 43.4929 43.2278 43.6723 43.6932C43.8517 44.1585 43.9304 44.6567 43.9032 45.1547V46.8984C43.9291 47.3921 43.8496 47.8856 43.6702 48.3463C43.4908 48.8069 43.2155 49.2241 42.8626 49.5703C42.0249 50.2533 40.9601 50.5949 39.8814 50.5266C38.8017 50.602 37.7344 50.2597 36.9001 49.5703C36.5472 49.2241 36.2719 48.8069 36.0925 48.3463C35.9131 47.8856 35.8337 47.3921 35.8595 46.8984V45.1547C35.8323 44.6567 35.911 44.1585 36.0904 43.6932C36.2698 43.2278 36.5457 42.8057 36.9001 42.4547ZM52.3689 42.1312C52.3994 42.2268 52.4052 42.3287 52.3855 42.4271C52.3658 42.5255 52.3214 42.6173 52.2564 42.6938L40.7814 58.6266C40.6253 58.8775 40.4136 59.0893 40.1626 59.2453C39.8366 59.3532 39.4926 59.3962 39.1501 59.3719H38.2079C37.9267 59.3719 37.7439 59.2875 37.6735 59.1188C37.6032 58.95 37.6735 58.7672 37.8001 58.5281L49.3314 42.5672C49.4624 42.3223 49.663 42.1217 49.9079 41.9906C50.2133 41.9 50.5319 41.862 50.8501 41.8781H51.9189C52.172 41.8781 52.3314 41.9813 52.397 42.1875L52.3689 42.1312ZM39.8532 43.7766C38.7423 43.7766 38.1798 44.2828 38.1798 45.2813V46.6875C38.1798 47.6859 38.7423 48.1922 39.8532 48.1922C40.9642 48.1922 41.5267 47.6859 41.5267 46.6875V45.2813C41.5548 44.2828 40.9923 43.7766 39.8814 43.7766H39.8532ZM47.1095 51.6937C47.9417 50.9994 49.0092 50.6519 50.0907 50.7234C51.1722 50.6519 52.2398 50.9994 53.072 51.6937C53.4264 52.0447 53.7023 52.4668 53.8817 52.9322C54.0611 53.3976 54.1398 53.8957 54.1126 54.3937V56.1375C54.1384 56.6312 54.059 57.1247 53.8796 57.5853C53.7002 58.046 53.4249 58.4632 53.072 58.8094C52.2377 59.4987 51.1703 59.8411 50.0907 59.7656C49.012 59.8339 47.9472 59.4924 47.1095 58.8094C46.7566 58.4632 46.4813 58.046 46.3019 57.5853C46.1225 57.1247 46.043 56.6312 46.0689 56.1375V54.3937C46.0453 53.8936 46.1285 53.3943 46.3127 52.9288C46.497 52.4632 46.7782 52.0423 47.1376 51.6937H47.1095ZM50.0907 53.0156C48.9798 53.0156 48.4173 53.5078 48.4173 54.5203V55.9266C48.4173 56.9531 48.9798 57.4594 50.0907 57.4594C51.2017 57.4594 51.7642 56.9531 51.7642 55.9266V54.5203C51.7923 53.5078 51.2298 53.0156 50.1189 53.0156H50.0907Z" fill="white"/>
<defs>
<linearGradient id="paint0_linear_51_164" x1="33.2016" y1="30.7266" x2="52.4109" y2="64.0125" gradientUnits="userSpaceOnUse">
<stop stop-color="#3392D6"/>
<stop offset="0.45" stop-color="#3392D6"/>
<stop offset="1" stop-color="#2477B2"/>
</linearGradient>
</defs>
</svg>
