<svg width="90" height="90" viewBox="0 0 90 90" fill="none" xmlns="http://www.w3.org/2000/svg">
<path d="M36.5625 23.9062C27.9984 36.5625 22.5 44.4656 22.5 52.1578C22.5 55.8874 23.9816 59.4643 26.6188 62.1015C29.256 64.7387 32.8329 66.2203 36.5625 66.2203C40.2921 66.2203 43.869 64.7387 46.5062 62.1015C49.1434 59.4643 50.625 55.8874 50.625 52.1578C50.625 44.4656 45.1266 36.5625 36.5625 23.9062Z" fill="url(#paint0_linear_51_173)" stroke="#2885C7" stroke-width="0.5" stroke-miterlimit="10"/>
<path d="M53.4375 23.9062C44.8734 36.5625 39.375 44.4656 39.375 52.1578C39.375 55.8874 40.8566 59.4643 43.4938 62.1015C46.131 64.7387 49.7079 66.2203 53.4375 66.2203C57.1671 66.2203 60.744 64.7387 63.3812 62.1015C66.0184 59.4643 67.5 55.8874 67.5 52.1578C67.5 44.4656 62.0016 36.5625 53.4375 23.9062Z" fill="url(#paint1_linear_51_173)" stroke="#2885C7" stroke-width="0.5" stroke-miterlimit="10"/>
<defs>
<linearGradient id="paint0_linear_51_173" x1="24.7641" y1="30.7266" x2="43.9734" y2="64.0125" gradientUnits="userSpaceOnUse">
<stop stop-color="#3392D6"/>
<stop offset="0.45" stop-color="#3392D6"/>
<stop offset="1" stop-color="#2477B2"/>
</linearGradient>
<linearGradient id="paint1_linear_51_173" x1="41.6391" y1="30.7266" x2="60.8484" y2="64.0125" gradientUnits="userSpaceOnUse">
<stop stop-color="#3392D6"/>
<stop offset="0.45" stop-color="#3392D6"/>
<stop offset="1" stop-color="#2477B2"/>
</linearGradient>
</defs>
</svg>
